<svg xmlns="http://www.w3.org/2000/svg" xmlns:svg="http://www.w3.org/2000/svg" id="svg3020" width="48" height="48" version="1.1"><metadata id="metadata3025"/><g id="layer1"><polygon id="polygon4191" points="0 316.6 81.19 316.6 81.19 247.55 40.6 281.41 40.6 281.41 0 247.55" class="cls-4" transform="matrix(0.44696256,0,0,0.35766585,6.1519517,-65.132907)" style="fill:#1f8ece"/><polygon id="polygon4193" points="0 242.65 40.6 276.5 81.19 242.65 0 242.65" class="cls-4" transform="matrix(0.44696256,0,0,0.35766585,6.1519517,-65.132907)" style="fill:#1f8ece"/><path id="path4195" d="m 9.4684144,12.888323 v 7.353608 h 6.3200506 v -7.353608 c 0,-4.027318 3.81706,-7.3071137 8.492289,-7.3071137 4.675228,0 8.492289,3.2762188 8.492289,7.3071137 v 7.353608 h 6.32005 v -7.353608 c 0,-6.9101042 -6.646333,-12.51830551 -14.825748,-12.51830551 h 0 c -8.174945,0 -14.8257472,5.62250781 -14.8257472,12.51830551" class="cls-3" style="fill:#3d3d3b"/></g></svg>