<svg xmlns="http://www.w3.org/2000/svg" xmlns:svg="http://www.w3.org/2000/svg" id="svg3020" width="48" height="48" version="1.1"><defs id="defs3022"><style id="current-color-scheme" type="text/css"/></defs><metadata id="metadata3025"/><g id="layer1"><path style="fill:#fff;fill-opacity:1;stroke:#141414;stroke-width:.92932558;stroke-miterlimit:4;stroke-opacity:1;stroke-dasharray:none" id="path4195" d="M 4.7359594,11.38487 4.5179339,22.175169 9.6704627,22.10315 9.6051672,11.384873 C 9.5837656,7.8717479 12.545977,5.0105895 16.147953,5.0105895 c 3.601975,0 6.542785,2.8579742 6.542785,6.3742835 l 0.04141,10.733499 4.827805,0.20371 0,-10.937209 c 0,-6.0279566 -5.120591,-10.92021125 -11.422324,-10.92021125 l 0,0 c -6.2982906,0 -11.4223243,4.90473485 -11.4223243,10.92021125" class="cls-3"/><rect id="rect4451" width="29.071" height="21.932" x=".965" y="22.103" style="fill:#fff;fill-opacity:1;stroke:#141414;stroke-width:.92932558;stroke-miterlimit:4;stroke-opacity:1;stroke-dasharray:none"/><path id="path4387" d="m 32,16.236454 c -8.733005,0 -15.763547,7.030541 -15.763547,15.763547 0,8.733005 7.030542,15.763546 15.763547,15.763546 8.733006,0 15.763547,-7.030541 15.763547,-15.763546 0,-8.733006 -7.030541,-15.763547 -15.763547,-15.763547 z" class="ColorScheme-PositiveText" style="fill:#27ae60;fill-opacity:1;stroke:#141414;stroke-width:.47290644;stroke-miterlimit:4;stroke-opacity:1;stroke-dasharray:none"/><path id="path4389" d="m 40.334027,23.533934 -11.9037,11.9037 -3.9679,-3.967899 -3.967901,3.967899 3.967901,3.967901 3.9679,3.9679 15.8716,-15.8716 -3.9679,-3.967901 z" style="fill:#fff;fill-opacity:1;stroke:none"/></g></svg>