<svg xmlns="http://www.w3.org/2000/svg" xmlns:svg="http://www.w3.org/2000/svg" id="svg3020" width="48" height="48" version="1.1"><defs id="defs3022"><style id="current-color-scheme" type="text/css"/></defs><metadata id="metadata3025"/><g id="layer1"><path style="fill:#fff;fill-opacity:1;stroke:#141414;stroke-width:.92932558;stroke-miterlimit:4;stroke-opacity:1;stroke-dasharray:none" id="path4195" d="M 4.2359594,11.38487 4.0179339,22.175169 9.1704627,22.10315 9.1051672,11.384873 C 9.0837656,7.8717479 12.045977,5.0105895 15.647953,5.0105895 c 3.601975,0 6.542785,2.8579742 6.542785,6.3742835 l 0.04141,10.733499 4.827805,0.20371 0,-10.937209 c 0,-6.0279566 -5.120591,-10.92021125 -11.422324,-10.92021125 l 0,0 c -6.2982906,0 -11.4223243,4.90473485 -11.4223243,10.92021125" class="cls-3"/><rect id="rect4451" width="29.071" height="21.932" x=".465" y="22.103" style="fill:#fff;fill-opacity:1;stroke:#141414;stroke-width:.92932558;stroke-miterlimit:4;stroke-opacity:1;stroke-dasharray:none"/><path id="path4387" d="m 31.999997,16.235987 c -8.733263,0 -15.76401,7.03075 -15.76401,15.764013 0,8.733263 7.030747,15.764012 15.76401,15.764012 8.733265,0 15.764015,-7.030749 15.764015,-15.764012 0,-8.733263 -7.03075,-15.764013 -15.764015,-15.764013 z" class="ColorScheme-PositiveText" style="fill:#27ae60;fill-opacity:1;stroke:#141414;stroke-width:.47197506;stroke-miterlimit:4;stroke-opacity:1;stroke-dasharray:none"/><path id="path2990" d="m 26.4375,13 a 11.4375,11.0625 0 1 1 -22.875,0 11.4375,11.0625 0 1 1 22.875,0 z" transform="matrix(0.69945359,0,0,0.72316383,21.508194,22.598869)" style="fill:#fff;fill-opacity:1;stroke:none"/></g></svg>