<svg xmlns="http://www.w3.org/2000/svg" xmlns:svg="http://www.w3.org/2000/svg" id="svg3020" width="48" height="48" version="1.1"><defs id="defs3022"><style id="current-color-scheme" type="text/css">.ColorScheme-Highlight{color:#3daee9}</style><style id="current-color-scheme-7" type="text/css"/><style id="current-color-scheme-6" type="text/css">.ColorScheme-Highlight{color:#3daee9}</style></defs><metadata id="metadata3025"/><g id="layer1"><path style="fill:#fff;fill-opacity:1;stroke:#141414;stroke-width:.92932558;stroke-miterlimit:4;stroke-opacity:1;stroke-dasharray:none" id="path4195-5" d="m 4.735958,11.384869 -0.2180253,10.7903 5.1525285,-0.07202 -0.065299,-10.718276 C 9.5837615,7.8717472 12.545973,5.0105892 16.147949,5.0105892 c 3.601974,0 6.542785,2.8579738 6.542785,6.3742838 l 0.04141,10.733498 4.827806,0.203711 0,-10.937209 c 0,-6.027957 -5.120591,-10.92021125 -11.422324,-10.92021125 l 0,0 c -6.2982911,0 -11.4223248,4.90473425 -11.4223248,10.92021125" class="cls-3"/><rect id="rect4451" width="29.071" height="21.932" x=".965" y="22.103" style="fill:#fff;fill-opacity:1;stroke:#141414;stroke-width:.92932558;stroke-miterlimit:4;stroke-opacity:1;stroke-dasharray:none"/><g style="stroke:#000;stroke-width:.02432432;stroke-miterlimit:4;stroke-opacity:1;stroke-dasharray:none" id="g5434" transform="matrix(3.9845616,0,0,3.9843743,-11.829435,-4117.1768)"><path style="color:#3daee9;fill:currentColor;fill-opacity:1;stroke:#000;stroke-width:.02432432;stroke-miterlimit:4;stroke-opacity:1;stroke-dasharray:none" id="path5436" d="m 15,1041.3622 a 4,4 0 0 1 -4,4 4,4 0 0 1 -4,-4 4,4 0 0 1 4,-4 4,4 0 0 1 4,4 z" class="ColorScheme-Highlight"/><path style="fill:#fff;fill-opacity:1;stroke:#000;stroke-width:.02432432;stroke-miterlimit:4;stroke-opacity:1;stroke-dasharray:none" id="rect4241" d="m 3.5,1 0,1 1,0 0,-1 -1,0 z m 0,2 0,4 1,0 0,-4 -1,0 z" transform="translate(7,1037.3622)"/></g></g></svg>