<svg xmlns="http://www.w3.org/2000/svg" xmlns:svg="http://www.w3.org/2000/svg" id="svg3020" width="48" height="48" version="1.1"><defs id="defs3022"><style id="current-color-scheme" type="text/css">.ColorScheme-Highlight{color:#3daee9}</style><style id="current-color-scheme-7" type="text/css"/><style id="current-color-scheme-6" type="text/css">.ColorScheme-Highlight{color:#3daee9}</style></defs><metadata id="metadata3025"/><g id="layer1"><g style="stroke:#000;stroke-width:.02432432;stroke-miterlimit:4;stroke-opacity:1;stroke-dasharray:none" id="g5434" transform="matrix(5.9818121,0,0,5.9818121,-41.799933,-6205.233)"><path style="color:#3daee9;fill:currentColor;fill-opacity:1;stroke:#000;stroke-width:.02432432;stroke-miterlimit:4;stroke-opacity:1;stroke-dasharray:none" id="path5436" d="m 15,1041.3622 a 4,4 0 0 1 -4,4 4,4 0 0 1 -4,-4 4,4 0 0 1 4,-4 4,4 0 0 1 4,4 z" class="ColorScheme-Highlight"/><path style="fill:#fff;fill-opacity:1;stroke:#000;stroke-width:.02432432;stroke-miterlimit:4;stroke-opacity:1;stroke-dasharray:none" id="rect4241" d="m 3.5,1 0,1 1,0 0,-1 -1,0 z m 0,2 0,4 1,0 0,-4 -1,0 z" transform="translate(7,1037.3622)"/></g></g></svg>