<svg xmlns="http://www.w3.org/2000/svg" xmlns:svg="http://www.w3.org/2000/svg" id="svg3020" width="48" height="48" version="1.1"><defs id="defs3022"><style id="current-color-scheme" type="text/css"/><style id="current-color-scheme-7" type="text/css"/></defs><metadata id="metadata3025"/><g id="layer1"><path style="fill:#fff;fill-opacity:1;stroke:#141414;stroke-width:.92932558;stroke-miterlimit:4;stroke-opacity:1;stroke-dasharray:none" id="path4195-5" d="M 4.235958,11.38487 4.0179328,22.175169 9.170461,22.10315 9.1051629,11.384873 C 9.0837653,7.8717472 12.045973,5.0105893 15.64795,5.0105893 c 3.601974,0 6.542783,2.8579736 6.542783,6.3742837 l 0.04141,10.7335 4.827804,0.203709 0,-10.937209 c 0,-6.0279569 -5.12059,-10.92021124 -11.422323,-10.92021124 l 0,0 c -6.2982915,0 -11.4223248,4.90473444 -11.4223248,10.92021124" class="cls-3"/><rect id="rect4451" width="29.071" height="21.932" x=".465" y="22.103" style="fill:#fff;fill-opacity:1;stroke:#141414;stroke-width:.92932558;stroke-miterlimit:4;stroke-opacity:1;stroke-dasharray:none"/><g style="stroke:#000;stroke-width:.02681564;stroke-miterlimit:4;stroke-opacity:1;stroke-dasharray:none" id="g5274" transform="matrix(3.9839401,0,0,3.9837562,16.06424,16.064971)"><path style="fill:#9b59b6;fill-opacity:1;stroke:#000;stroke-width:.02681564;stroke-miterlimit:4;stroke-opacity:1;stroke-dasharray:none" id="path5264" d="M 2,0 C 0.8919807,0 0,0.892 0,2 L 0,6 C 0,7.1081 0.8919807,8 2,8 L 6,8 C 7.108019,8 8,7.1081 8,6 L 8,2 C 8,0.892 7.108019,0 6,0 L 2,0 z"/><path style="fill:#fff;fill-opacity:1;stroke:#000;stroke-width:.02681564;stroke-miterlimit:4;stroke-opacity:1;stroke-dasharray:none" id="path5266" d="M 4,1 C 3.51389,1 3.0599989,1.1705344 2.7402344,1.4902344 2.4204694,1.8100344 2.25,2.2639 2.25,2.75 l 1,0 C 3.25,2.4861 3.3295286,2.3149656 3.4472656,2.1972656 3.5650006,2.0795656 3.736112,2 4,2 4.26389,2 4.4349984,2.0799656 4.5527344,2.1972656 4.6704694,2.3149656 4.75,2.4861 4.75,2.75 4.75,2.9792 4.70483,3.0776625 4.6445312,3.1640625 4.5842412,3.2500625 4.4849756,3.3305938 4.3378906,3.4335938 4.1908036,3.5364937 3.9968862,3.6547344 3.8164062,3.8652344 3.6359262,4.0758344 3.5,4.3959 3.5,4.75 l 0,0.25 1,0 0,-0.25 C 4.5,4.6042 4.520309,4.578525 4.574219,4.515625 4.628109,4.452625 4.7466936,4.3697062 4.9121096,4.2539062 5.0775214,4.1381062 5.2907638,3.983975 5.4648438,3.734375 5.6389238,3.484875 5.75,3.1458 5.75,2.75 5.75,2.2639 5.5795326,1.8100344 5.2597656,1.4902344 4.9400006,1.1705344 4.486112,1 4,1 z m -0.5,5 0,1 1,0 0,-1 -1,0 z"/></g></g></svg>