<svg xmlns="http://www.w3.org/2000/svg" xmlns:svg="http://www.w3.org/2000/svg" id="svg3020" width="48" height="48" version="1.1"><defs id="defs3022"><style id="current-color-scheme" type="text/css"/><style id="current-color-scheme-7" type="text/css">.ColorScheme-Text{color:#4d4d4d}</style></defs><metadata id="metadata3025"/><g id="layer1"><path style="fill:#fff;fill-opacity:1;stroke:#141414;stroke-width:.92932558;stroke-miterlimit:4;stroke-opacity:1;stroke-dasharray:none" id="path4195-5" d="m 4.235958,11.384869 -0.2180253,10.7903 5.1525285,-0.07202 -0.065299,-10.718276 C 9.0837615,7.8717472 12.045973,5.0105892 15.647949,5.0105892 c 3.601974,0 6.542785,2.8579738 6.542785,6.3742838 l 0.04141,10.733498 4.827806,0.203711 0,-10.937209 c 0,-6.027957 -5.120591,-10.92021125 -11.422324,-10.92021125 l 0,0 c -6.2982911,0 -11.4223248,4.90473425 -11.4223248,10.92021125" class="cls-3"/><rect id="rect4451" width="29.071" height="21.932" x=".465" y="22.103" style="fill:#fff;fill-opacity:1;stroke:#141414;stroke-width:.92932558;stroke-miterlimit:4;stroke-opacity:1;stroke-dasharray:none"/><path id="path4387-2" d="m 32,16.16533 c -8.772408,0 -15.834671,7.062262 -15.834671,15.834672 0,8.772406 7.062263,15.83467 15.834671,15.83467 8.772408,0 15.834672,-7.062264 15.834672,-15.83467 C 47.834672,23.227592 40.772408,16.16533 32,16.16533 z" class="ColorScheme-PositiveText" style="fill:#27ae60;fill-opacity:1;stroke:#000;stroke-width:.33065793;stroke-miterlimit:4;stroke-opacity:1;stroke-dasharray:none"/><path style="color:#4d4d4d;fill:#fff;fill-opacity:1;stroke:none" id="rect4161-9" d="m 32.42467,17.908178 -3.92122,8.337264 -8.745447,1.335889 6.333333,6.494136 -1.496756,9.166044 7.83009,-4.329403 7.83009,4.329403 -1.496757,-9.166044 6.333334,-6.494136 -8.745446,-1.335889 -3.921221,-8.337264 z" class="ColorScheme-Text"/></g></svg>