<svg xmlns="http://www.w3.org/2000/svg" xmlns:svg="http://www.w3.org/2000/svg" id="svg3020" width="48" height="48" version="1.1"><metadata id="metadata3025"/><g id="layer1"><polygon id="polygon4191" points="0 316.6 81.19 316.6 81.19 247.55 40.6 281.41 40.6 281.41 0 247.55" class="cls-4" transform="matrix(0.44696256,0,0,0.35766585,6.1519517,-65.132907)" style="fill:#1f8ece"/><polygon id="polygon4193" points="0 242.65 40.6 276.5 81.19 242.65 0 242.65" class="cls-4" transform="matrix(0.44696256,0,0,0.35766585,6.1519517,-65.132907)" style="fill:#1f8ece"/><path id="path4195" d="m 9.4684144,12.888323 v 7.353608 h 6.3200506 v -7.353608 c 0,-4.027318 3.81706,-7.3071137 8.492289,-7.3071137 4.675228,0 8.492289,3.2762188 8.492289,7.3071137 v 7.353608 h 6.32005 v -7.353608 c 0,-6.9101042 -6.646333,-12.51830551 -14.825748,-12.51830551 h 0 c -8.174945,0 -14.8257472,5.62250781 -14.8257472,12.51830551" class="cls-3" style="fill:#3d3d3b"/><polygon style="fill:#d65533;fill-opacity:1" id="polygon3338" points="338.235 308.602 173.765 308.602 173.765 512 256.001 459.841 338.235 512" transform="matrix(0.03995009,0,0,0.06006972,22.624966,15.642646)"/><polygon style="fill:#ff9070;fill-opacity:1" id="polygon3340" points="415.425 92.01 408.732 143.13 440.064 184.064 408.732 224.999 415.425 276.119 367.779 295.844 348.053 343.49 296.935 336.796 256.001 368.129 215.065 336.796 163.945 343.488 144.221 295.843 96.575 276.119 103.268 224.999 71.936 184.064 103.268 143.13 96.575 92.01 144.221 72.285 163.946 24.639 215.065 31.333 256.001 0 296.935 31.333 348.055 24.639 367.779 72.286" transform="matrix(0.03995009,0,0,0.03995009,22.624966,21.851606)"/><circle style="fill:#d65533;fill-opacity:1" id="circle3342" cx="255.996" cy="184.066" r="112.206" transform="matrix(0.03995009,0,0,0.03995009,22.624966,21.851606)"/></g></svg>