<svg xmlns="http://www.w3.org/2000/svg" xmlns:svg="http://www.w3.org/2000/svg" id="svg4223" width="48" height="48" version="1.1"><metadata id="metadata4228"/><g id="layer1"><polygon style="fill:#d65533;fill-opacity:1" id="polygon3338" points="338.235 308.602 173.765 308.602 173.765 512 256.001 459.841 338.235 512" transform="matrix(0.07831286,0,0,0.11775271,4.9522209,-11.798783)"/><polygon style="fill:#ff9070;fill-opacity:1" id="polygon3340" points="163.945 343.488 144.221 295.843 96.575 276.119 103.268 224.999 71.936 184.064 103.268 143.13 96.575 92.01 144.221 72.285 163.946 24.639 215.065 31.333 256.001 0 296.935 31.333 348.055 24.639 367.779 72.286 415.425 92.01 408.732 143.13 440.064 184.064 408.732 224.999 415.425 276.119 367.779 295.844 348.053 343.49 296.935 336.796 256.001 368.129 215.065 336.796" transform="matrix(0.07831286,0,0,0.07831286,4.9522209,0.3724384)"/><circle style="fill:#d65533;fill-opacity:1" id="circle3342" cx="255.996" cy="184.066" r="112.206" transform="matrix(0.07831286,0,0,0.07831286,4.9522209,0.3724384)"/></g></svg>